<svg width="25" height="24" viewBox="0 0 25 24" fill="none" xmlns="http://www.w3.org/2000/svg">
<path d="M9.68374 22.9091C10.123 22.9091 10.3182 22.9091 10.3182 22.9091C10.3182 22.9091 10.5622 22.9091 10.7172 22.9091H14.2828C14.4378 22.9091 14.5412 22.9091 14.5412 22.9091H15.321L19.4761 22.9352C21.0522 22.9352 22.3182 21.7675 22.3182 20.1765V10.1874C22.3182 9.53535 22.0598 8.9094 21.5947 8.46602L21.5689 8.43994L13.8694 1.5023C13.1201 0.77202 11.8799 0.77202 11.1306 1.5023L3.43111 8.43994L3.40527 8.46602C2.9402 8.93548 2.68182 9.56144 2.68182 10.1874V20.1505C2.68182 21.7414 3.94785 22.9091 5.52393 22.9091H9.68374ZM4.23206 20.1505V10.1874C4.23206 9.97874 4.30957 9.74401 4.4646 9.58752L12.1641 2.64988L12.19 2.6238C12.345 2.46731 12.6292 2.46731 12.7842 2.6238L12.8101 2.64988L20.5096 9.58752C20.6646 9.74401 20.7421 9.95266 20.7421 10.1874V20.1505C20.7421 20.8807 20.1737 21.4545 19.4502 21.4545H16.0914C16.0914 21.4545 15.2904 21.4545 14.2828 21.4545H10.7172C9.70958 21.4545 8.90862 21.4806 8.90862 21.4806H5.52393C4.80048 21.4545 4.23206 20.8807 4.23206 20.1505Z" fill="#9CA3AF"/>
<path d="M4.23206 20.1505V10.1874C4.23206 9.97874 4.30957 9.74401 4.4646 9.58752L12.1641 2.64988L12.19 2.6238C12.345 2.46731 12.6292 2.46731 12.7842 2.6238L12.8101 2.64988L20.5096 9.58752C20.6646 9.74401 20.7421 9.95266 20.7421 10.1874V20.1505C20.7421 20.8807 20.1737 21.4545 19.4502 21.4545H16.0914H14.2828H10.7172C9.70958 21.4545 8.90862 21.4806 8.90862 21.4806H5.52393C4.80048 21.4545 4.23206 20.8807 4.23206 20.1505Z" fill="#9CA3AF"/>
<line x1="12.4091" y1="15.1816" x2="12.4091" y2="17.5453" stroke="#F3F4F6" stroke-width="2" stroke-linecap="round"/>
</svg>
