<svg width="14" height="14" viewBox="0 0 14 14" fill="none" xmlns="http://www.w3.org/2000/svg">
<path d="M7 1C8.32608 1 9.59785 1.52032 10.5355 2.44651C11.4732 3.37269 12 4.62886 12 5.93868C12 8.02559 10.5154 10.2999 7.58462 12.786C7.42165 12.9242 7.21388 13.0002 6.99904 13C6.7842 12.9998 6.57656 12.9235 6.41385 12.785L6.22 12.6188C3.41897 10.1976 2 7.97899 2 5.93868C2 4.62886 2.52678 3.37269 3.46447 2.44651C4.40215 1.52032 5.67392 1 7 1ZM7 1.7598C5.87793 1.7598 4.80182 2.20007 4.00839 2.98376C3.21497 3.76746 2.76923 4.83037 2.76923 5.93868C2.76923 7.71255 4.0759 9.7564 6.72513 12.0459L6.91641 12.2095C6.93967 12.2293 6.96933 12.2402 7 12.2402C7.03067 12.2402 7.06033 12.2293 7.08359 12.2095C9.86103 9.85315 11.2308 7.75459 11.2308 5.93868C11.2308 5.3899 11.1213 4.8465 10.9087 4.33949C10.6961 3.83248 10.3845 3.37181 9.99161 2.98376C9.59874 2.59572 9.13235 2.2879 8.61904 2.0779C8.10574 1.86789 7.55559 1.7598 7 1.7598ZM6.92308 4.33949C7.43311 4.33949 7.92225 4.53961 8.2829 4.89584C8.64355 5.25206 8.84615 5.73521 8.84615 6.23898C8.84615 6.74276 8.64355 7.2259 8.2829 7.58213C7.92225 7.93835 7.43311 8.13847 6.92308 8.13847C6.41305 8.13847 5.9239 7.93835 5.56326 7.58213C5.20261 7.2259 5 6.74276 5 6.23898C5 5.73521 5.20261 5.25206 5.56326 4.89584C5.9239 4.53961 6.41305 4.33949 6.92308 4.33949ZM6.92308 5.09929C6.61706 5.09929 6.32357 5.21936 6.10718 5.4331C5.8908 5.64683 5.76923 5.93672 5.76923 6.23898C5.76923 6.54125 5.8908 6.83113 6.10718 7.04487C6.32357 7.2586 6.61706 7.37868 6.92308 7.37868C7.2291 7.37868 7.52258 7.2586 7.73897 7.04487C7.95536 6.83113 8.07692 6.54125 8.07692 6.23898C8.07692 5.93672 7.95536 5.64683 7.73897 5.4331C7.52258 5.21936 7.2291 5.09929 6.92308 5.09929Z" fill="#181818"/>
</svg>
