<svg width="23" height="22" viewBox="0 0 23 22" fill="none" xmlns="http://www.w3.org/2000/svg">
<g id="gridicons:user">
<path id="Vector" d="M12 2.5C12.985 2.5 13.9359 2.91406 14.6417 3.66133C15.3484 4.40957 15.75 5.43021 15.75 6.5C15.75 7.56979 15.3484 8.59043 14.6417 9.33867C13.9359 10.0859 12.985 10.5 12 10.5C11.015 10.5 10.0641 10.0859 9.3583 9.33867C8.65163 8.59043 8.25 7.56979 8.25 6.5C8.25 5.43021 8.65163 4.40957 9.3583 3.66133C10.0641 2.91406 11.015 2.5 12 2.5ZM12 19.5H12H11.9999H11.999L11.9949 19.5L11.9778 19.4999L11.909 19.4995C11.8483 19.4989 11.7586 19.4979 11.6442 19.4957C11.4153 19.4914 11.0875 19.4827 10.6939 19.4653C9.90532 19.4305 8.85852 19.3611 7.8156 19.2231C6.76497 19.084 5.75137 18.8794 5.01264 18.5861C4.64222 18.439 4.3737 18.2821 4.20505 18.1259C4.04368 17.9764 4 17.8547 4 17.75C4 16.647 4.86915 15.372 6.39649 14.3392C7.89944 13.3229 9.92778 12.625 12 12.625C14.0722 12.625 16.1006 13.3229 17.6035 14.3392C19.1308 15.372 20 16.647 20 17.75C20 17.8547 19.9563 17.9764 19.795 18.1259C19.6263 18.2821 19.3578 18.439 18.9874 18.5861C18.2486 18.8794 17.235 19.084 16.1844 19.2231C15.1415 19.3611 14.0947 19.4305 13.3061 19.4653C12.9125 19.4827 12.5847 19.4914 12.3558 19.4957C12.2414 19.4979 12.1517 19.4989 12.091 19.4995L12.0222 19.4999L12.0051 19.5L12.001 19.5H12.0001H12Z" stroke="#FDFDFD"/>
</g>
</svg>
