<svg width="22" height="22" viewBox="0 0 22 22" fill="none" xmlns="http://www.w3.org/2000/svg">
<g id="ion:calendar-clear-outline">
<path id="Vector" d="M17.875 3.4375H4.125C2.98591 3.4375 2.0625 4.36091 2.0625 5.5V17.875C2.0625 19.0141 2.98591 19.9375 4.125 19.9375H17.875C19.0141 19.9375 19.9375 19.0141 19.9375 17.875V5.5C19.9375 4.36091 19.0141 3.4375 17.875 3.4375Z" stroke="#FDFDFD" stroke-linejoin="round"/>
<path id="Vector_2" d="M5.5 2.0625V3.4375M16.5 2.0625V3.4375M19.9375 6.875H2.0625" stroke="#FDFDFD" stroke-linecap="round" stroke-linejoin="round"/>
<path id="Vector_3" d="M9.46962 15.657L7.81271 13.7253C7.72343 13.6212 7.60234 13.5628 7.47607 13.5628C7.34981 13.5628 7.22872 13.6212 7.13944 13.7253C7.05016 13.8294 7 13.9706 7 14.1178C7 14.1907 7.01231 14.2628 7.03624 14.3302C7.06016 14.3975 7.09523 14.4587 7.13944 14.5102L9.13538 16.8372C9.3216 17.0543 9.62242 17.0543 9.80865 16.8372L14.8606 10.9475C14.9498 10.8434 15 10.7022 15 10.555C15 10.4078 14.9498 10.2666 14.8606 10.1626C14.7713 10.0585 14.6502 10 14.5239 10C14.3977 10 14.2766 10.0585 14.1873 10.1626L9.46962 15.657Z" fill="#FDFDFD"/>
</g>
</svg>
