<svg width="14" height="14" viewBox="0 0 14 14" fill="none" xmlns="http://www.w3.org/2000/svg">
<g id="Location">
<path id="Vector" d="M7.11594 12.4489L7.10209 12.4587L7.08895 12.4695C7.06682 12.4877 7.03539 12.5 7 12.5C6.96461 12.5 6.93318 12.4877 6.91105 12.4695L6.59375 12.856L6.91354 12.4716L6.91251 12.4707C6.81912 12.393 5.70174 11.4635 4.60944 10.1629C4.06128 9.51023 3.52875 8.77501 3.13515 8.017C2.73986 7.25572 2.5 6.50071 2.5 5.79998C2.5 4.6663 2.96893 3.5747 3.81073 2.76658C4.65322 1.95779 5.80009 1.5 7 1.5C8.19991 1.5 9.34678 1.95779 10.1893 2.76658C11.0311 3.5747 11.5 4.6663 11.5 5.79998C11.5 6.50146 11.2616 7.25689 10.8687 8.01807C10.4774 8.77604 9.94776 9.51115 9.40173 10.1636C8.85685 10.8146 8.30384 11.3736 7.87332 11.7795C7.65834 11.9821 7.47493 12.1457 7.33973 12.2624C7.27209 12.3208 7.21706 12.367 7.17665 12.4001C7.13201 12.4368 7.11411 12.4502 7.11594 12.4489ZM6.66523 11.9614L6.99916 12.2624L7.33384 11.9622C8.01674 11.3497 8.97989 10.3781 9.77692 9.29509C10.5578 8.23406 11.25 6.97283 11.25 5.79998C11.25 4.70586 10.7971 3.66089 9.99792 2.89371C9.19947 2.1272 8.12073 1.7 7 1.7C5.87927 1.7 4.80053 2.1272 4.00208 2.89371C3.20294 3.66089 2.75 4.70586 2.75 5.79998C2.75 6.97297 3.44236 8.23277 4.22318 9.29298C5.02019 10.3752 5.98317 11.3465 6.66523 11.9614ZM5.88103 4.22532C6.21055 4.01395 6.6 3.89999 7 3.89999C7.53687 3.89999 8.04785 4.10492 8.4215 4.46363C8.79446 4.82167 9 5.30281 9 5.79998C9 6.17111 8.88547 6.53569 8.66829 6.84771C8.45093 7.16001 8.1398 7.4064 7.77196 7.55267C7.40397 7.699 6.99796 7.73757 6.60606 7.66274C6.21423 7.58791 5.85699 7.40369 5.5785 7.13634C5.30023 6.8692 5.11319 6.53137 5.03764 6.16675C4.96212 5.8023 5.00067 5.4243 5.14939 5.07963C5.29822 4.7347 5.55171 4.43656 5.88103 4.22532ZM6.03558 7.2186C6.32274 7.40281 6.65832 7.49998 7 7.49998C7.45769 7.49998 7.90054 7.32563 8.23015 7.0092C8.56045 6.69211 8.75 6.25759 8.75 5.79998C8.75 5.4591 8.6446 5.12766 8.44972 4.84767C8.25502 4.56794 7.98049 4.35292 7.66311 4.22672C7.34587 4.10057 6.99788 4.06785 6.66235 4.13192C6.32675 4.196 6.01581 4.35465 5.76985 4.59077C5.52367 4.82709 5.35356 5.13072 5.28442 5.46443C5.21524 5.79831 5.25095 6.14414 5.38606 6.45729C5.52106 6.77017 5.74821 7.03427 6.03558 7.2186Z" stroke="#14145C"/>
</g>
</svg>
