<svg width="20" height="21" viewBox="0 0 20 21" fill="none" xmlns="http://www.w3.org/2000/svg">
<g id="Frame 39555">
<path id="Vector" d="M19.3753 9.87506H11.4586C11.1136 9.87506 10.8336 9.59506 10.8336 9.25006C10.8336 8.90506 11.1136 8.62506 11.4586 8.62506H19.3753C19.7203 8.62506 20.0003 8.90506 20.0003 9.25006C20.0003 9.59506 19.7203 9.87506 19.3753 9.87506Z" fill="#181818"/>
<path id="Vector_2" d="M16.2503 13C16.0903 13 15.9304 12.9391 15.8086 12.8168C15.5645 12.5725 15.5645 12.1767 15.8086 11.9325L18.492 9.24926L15.8086 6.56585C15.5645 6.32171 15.5645 5.9259 15.8086 5.68176C16.0529 5.43746 16.4487 5.43746 16.6928 5.68176L19.8178 8.80676C20.062 9.0509 20.062 9.44671 19.8178 9.69085L16.6928 12.8158C16.5703 12.9391 16.4104 13 16.2503 13Z" fill="#181818"/>
<path id="Vector_3" d="M6.66672 20.5C6.48834 20.5 6.31912 20.475 6.15005 20.4225L1.13495 18.7516C0.452576 18.5133 0 17.8775 0 17.1667V2.16672C0 1.24753 0.747528 0.5 1.66672 0.5C1.84494 0.5 2.01416 0.525024 2.18338 0.577515L7.19833 2.24835C7.88086 2.48669 8.33328 3.12253 8.33328 3.83328V18.8333C8.33328 19.7525 7.58591 20.5 6.66672 20.5ZM1.66672 1.75C1.43753 1.75 1.25 1.93753 1.25 2.16672V17.1667C1.25 17.3442 1.36917 17.5091 1.53915 17.5683L6.53076 19.2317C6.56662 19.2433 6.61331 19.25 6.66672 19.25C6.8959 19.25 7.08328 19.0625 7.08328 18.8333V3.83328C7.08328 3.65582 6.96411 3.49088 6.79413 3.43167L1.80252 1.76831C1.76666 1.75671 1.71997 1.75 1.66672 1.75Z" fill="#181818"/>
<path id="Vector_4" d="M12.7083 7.16672C12.3633 7.16672 12.0833 6.88672 12.0833 6.54172V2.79172C12.0833 2.21753 11.6159 1.75 11.0417 1.75H1.66675C1.32175 1.75 1.04175 1.47 1.04175 1.125C1.04175 0.779999 1.32175 0.5 1.66675 0.5H11.0417C12.3059 0.5 13.3333 1.52753 13.3333 2.79172V6.54172C13.3333 6.88672 13.0533 7.16672 12.7083 7.16672Z" fill="#181818"/>
<path id="Vector_5" d="M11.0421 18.0003H7.70862C7.36362 18.0003 7.08362 17.7203 7.08362 17.3753C7.08362 17.0303 7.36362 16.7503 7.70862 16.7503H11.0421C11.6162 16.7503 12.0836 16.2827 12.0836 15.7086V11.9586C12.0836 11.6136 12.3636 11.3336 12.7086 11.3336C13.0536 11.3336 13.3336 11.6136 13.3336 11.9586V15.7086C13.3336 16.9727 12.3062 18.0003 11.0421 18.0003Z" fill="#181818"/>
</g>
</svg>
