<svg width="22" height="22" viewBox="0 0 22 22" fill="none" xmlns="http://www.w3.org/2000/svg">
<g id="noun-filter-1058877">
<g id="Group">
<g id="Group_2">
<g id="Group_3">
<path id="Vector" fill-rule="evenodd" clip-rule="evenodd" d="M12.0322 5.5C12.4392 3.91854 13.8748 2.75 15.5833 2.75C17.2919 2.75 18.7274 3.91854 19.1345 5.5H21.0827C21.5893 5.5 22 5.90688 22 6.41667C22 6.92293 21.5898 7.33333 21.0827 7.33333H19.1345C18.7274 8.91479 17.2919 10.0833 15.5833 10.0833C13.8748 10.0833 12.4392 8.91479 12.0322 7.33333H0.917303C0.410691 7.33333 0 6.92646 0 6.41667C0 5.91041 0.41018 5.5 0.917303 5.5H12.0322ZM2.86552 14.6667C3.27256 13.0852 4.70815 11.9167 6.41667 11.9167C8.12519 11.9167 9.56078 13.0852 9.96782 14.6667H21.0827C21.5893 14.6667 22 15.0735 22 15.5833C22 16.0896 21.5898 16.5 21.0827 16.5H9.96782C9.56078 18.0815 8.12519 19.25 6.41667 19.25C4.70815 19.25 3.27256 18.0815 2.86552 16.5H0.917303C0.410691 16.5 0 16.0931 0 15.5833C0 15.0771 0.41018 14.6667 0.917303 14.6667H2.86552ZM6.41667 17.4167C7.42919 17.4167 8.25 16.5959 8.25 15.5833C8.25 14.5708 7.42919 13.75 6.41667 13.75C5.40414 13.75 4.58333 14.5708 4.58333 15.5833C4.58333 16.5959 5.40414 17.4167 6.41667 17.4167ZM15.5833 8.25C16.5959 8.25 17.4167 7.42919 17.4167 6.41667C17.4167 5.40414 16.5959 4.58333 15.5833 4.58333C14.5708 4.58333 13.75 5.40414 13.75 6.41667C13.75 7.42919 14.5708 8.25 15.5833 8.25Z" fill="#14145C"/>
</g>
</g>
</g>
</g>
</svg>
