<svg width="24" height="24" viewBox="0 0 24 24" fill="none" xmlns="http://www.w3.org/2000/svg">
<g id="noun-home-1076091 2">
<g id="Group">
<path id="Vector" d="M9.1838 22.9091C9.62303 22.9091 9.81825 22.9091 9.81825 22.9091C9.81825 22.9091 10.0623 22.9091 10.2173 22.9091H13.7828C13.9379 22.9091 14.0413 22.9091 14.0413 22.9091H14.8211L18.9761 22.9352C20.5522 22.9352 21.8182 21.7675 21.8182 20.1766V10.1874C21.8182 9.53535 21.5599 8.9094 21.0948 8.46602L21.069 8.43994L13.3694 1.5023C12.6202 0.77202 11.38 0.77202 10.6307 1.5023L2.93117 8.43994L2.90533 8.46602C2.44026 8.93548 2.18188 9.56144 2.18188 10.1874V20.1505C2.18188 21.7414 3.44791 22.9091 5.02399 22.9091H9.1838ZM3.73212 20.1505V10.1874C3.73212 9.97874 3.80964 9.74401 3.96466 9.58752L11.6642 2.64988L11.69 2.6238C11.845 2.46731 12.1293 2.46731 12.2843 2.6238L12.3101 2.64988L20.0096 9.58752C20.1647 9.74401 20.2422 9.95266 20.2422 10.1874V20.1505C20.2422 20.8807 19.6738 21.4545 18.9503 21.4545H15.5915C15.5915 21.4545 14.7905 21.4545 13.7828 21.4545H10.2173C9.20964 21.4545 8.40868 21.4806 8.40868 21.4806H5.02399C4.30055 21.4545 3.73212 20.8807 3.73212 20.1505Z" fill="#14145C"/>
</g>
<line id="Line 26" x1="11.9092" y1="15.1816" x2="11.9092" y2="17.5453" stroke="#14145C" stroke-width="2" stroke-linecap="round"/>
</g>
</svg>
