<svg width="20" height="21" viewBox="0 0 20 21" fill="none" xmlns="http://www.w3.org/2000/svg">
<g id="gridicons:user">
<path id="Vector" d="M9.45432 2.86812C10.3227 2.86812 11.1623 3.23307 11.7865 3.89396C12.4116 4.55591 12.768 5.4601 12.768 6.40902C12.768 7.35795 12.4116 8.26214 11.7865 8.92409C11.1623 9.58498 10.3227 9.94993 9.45432 9.94993C8.58597 9.94993 7.74635 9.58498 7.12218 8.92409C6.497 8.26214 6.14069 7.35795 6.14069 6.40902C6.14069 5.4601 6.497 4.55591 7.12218 3.89396C7.74635 3.23307 8.58597 2.86812 9.45432 2.86812ZM9.45439 18.1318H9.45438H9.45427H9.45426L9.45349 18.1318L9.44988 18.1317L9.4345 18.1317L9.3724 18.1313C9.31752 18.1308 9.23636 18.1298 9.13269 18.1279C8.92528 18.1239 8.6281 18.1161 8.27118 18.1003C7.55585 18.0688 6.60722 18.0058 5.66285 17.8808C4.71 17.7547 3.79787 17.5699 3.13741 17.3076C2.80601 17.1761 2.57402 17.0388 2.43287 16.908C2.29974 16.7847 2.27705 16.6977 2.27705 16.6363C2.27705 15.6807 3.03535 14.5467 4.41369 13.6146C5.76521 12.7007 7.59071 12.0727 9.45432 12.0727C11.3179 12.0727 13.1434 12.7007 14.495 13.6146C15.8733 14.5467 16.6316 15.6807 16.6316 16.6363C16.6316 16.6977 16.6089 16.7847 16.4758 16.908C16.3346 17.0388 16.1026 17.1761 15.7712 17.3076C15.1108 17.5699 14.1987 17.7547 13.2458 17.8808C12.3014 18.0058 11.3528 18.0688 10.6375 18.1003C10.2805 18.1161 9.98337 18.1239 9.77596 18.1279C9.67228 18.1298 9.59113 18.1308 9.53625 18.1313L9.47414 18.1317L9.45877 18.1317L9.45516 18.1318L9.45439 18.1318Z" stroke="#181818" stroke-width="1.1"/>
</g>
</svg>
