<svg width="18" height="18" viewBox="0 0 18 18" fill="none" xmlns="http://www.w3.org/2000/svg">
<g id="Star">
<path id="Vector" d="M16.5 7.57495C16.575 7.19995 16.275 6.74995 15.9 6.74995L11.625 6.14995L9.675 2.24995C9.6 2.09995 9.525 2.02495 9.375 1.94995C9 1.72495 8.55 1.87495 8.325 2.24995L6.45 6.14995L2.175 6.74995C1.95 6.74995 1.8 6.82495 1.725 6.97495C1.425 7.27495 1.425 7.72495 1.725 8.02495L4.8 11.025L4.05 15.3C4.05 15.45 4.05 15.6 4.125 15.75C4.35 16.125 4.8 16.275 5.175 16.05L9 14.025L12.825 16.05C12.9 16.125 13.05 16.125 13.2 16.125C13.275 16.125 13.275 16.125 13.35 16.125C13.725 16.05 14.025 15.675 13.95 15.225L13.2 10.95L16.275 7.94995C16.425 7.87495 16.5 7.72495 16.5 7.57495Z" fill="#FBBC04"/>
</g>
</svg>
