<svg width="34" height="4" viewBox="0 0 34 4" fill="none" xmlns="http://www.w3.org/2000/svg">
<path id="Line 27" d="M0.666667 2C0.666667 2.73638 1.26362 3.33333 2 3.33333C2.73638 3.33333 3.33333 2.73638 3.33333 2C3.33333 1.26362 2.73638 0.666667 2 0.666667C1.26362 0.666667 0.666667 1.26362 0.666667 2ZM30.6667 2C30.6667 2.73638 31.2636 3.33333 32 3.33333C32.7364 3.33333 33.3333 2.73638 33.3333 2C33.3333 1.26362 32.7364 0.666667 32 0.666667C31.2636 0.666667 30.6667 1.26362 30.6667 2ZM2 2.25H17V1.75H2V2.25ZM17 2.25H32V1.75H17V2.25Z" fill="#9CA3AF"/>
</svg>
